<svg xmlns="http://www.w3.org/2000/svg" width="800" height="800" viewBox="0 0 800 800"><g id="Grupo_8" data-name="Grupo 8" transform="translate(-6015 -1242)"><circle id="Elipse_2" data-name="Elipse 2" cx="400" cy="400" r="400" transform="translate(6015 1242)" fill="#efefef"></circle><g id="Grupo_7" data-name="Grupo 7" transform="matrix(-0.105, 0.995, -0.995, -0.105, 6763.274, 1465.259)"><path id="Trazado_364" data-name="Trazado 364" d="M132.86,52.758,67.257,0,0,254.245Z" transform="translate(170.939 90.495)" fill="#f4c967" stroke="#fff" stroke-linecap="round" stroke-linejoin="round" stroke-width="7"></path><path id="Trazado_365" data-name="Trazado 365" d="M0,201.477l311.087,37.73L132.85,0Z" transform="translate(170.947 143.261)" fill="#e9ae3a" stroke="#fff" stroke-linecap="round" stroke-linejoin="round" stroke-width="7"></path><path id="Trazado_366" data-name="Trazado 366" d="M0,75.669,170.94,254.245,238.187,0Z" transform="translate(0.003 90.496)" fill="#f4c967" stroke="#fff" stroke-linecap="round" stroke-linejoin="round" stroke-width="7"></path><path id="Trazado_367" data-name="Trazado 367" d="M9.744,119.637l161.2,58.939L0,0Z" transform="translate(0.007 166.161)" fill="#f4e3aa" stroke="#fff" stroke-linecap="round" stroke-linejoin="round" stroke-width="7"></path><path id="Trazado_370" data-name="Trazado 370" d="M0,181.658l275.662,32.825L97.161,0Z" transform="translate(73.787 344.742)" fill="#f1c96e" stroke="#fff" stroke-linecap="round" stroke-linejoin="round" stroke-width="7"></path><path id="Trazado_371" data-name="Trazado 371" d="M178.51,214.483,311.087,37.721,0,0Z" transform="translate(170.942 344.743)" fill="#c29230" stroke="#fff" stroke-linecap="round" stroke-linejoin="round" stroke-width="7"></path><path id="Trazado_373" data-name="Trazado 373" d="M0,90.205l61.671,91.453L158.832,0Z" transform="translate(12.114 344.739)" fill="#f4e3aa" stroke="#fff" stroke-linecap="round" stroke-linejoin="round" stroke-width="7"></path><path id="Trazado_374" data-name="Trazado 374" d="M0,0,2.363,149.145,161.2,58.939Z" transform="translate(9.751 285.802)" fill="#fff1d2" stroke="#fff" stroke-linecap="round" stroke-linejoin="round" stroke-width="7"></path></g></g></svg>