<svg xmlns="http://www.w3.org/2000/svg" id="Capa_1" data-name="Capa 1" viewBox="0 0 116 69.57"><defs><style>.cls-1{fill:#0078f0;}</style></defs><title>swarm-responsive</title><path class="cls-1" d="M34,62.69l7.61-21.37L29.07,6.19H0L20.13,62.65a7.44,7.44,0,0,0,13.84,0Z"></path><path class="cls-1" d="M70.12,6.81c-.88-2.37-3-4.49-5.68-4.54s-5.11,2.15-6,4.65l-.24.65L47.7,37.49,38.21,64.13a11.22,11.22,0,0,1-1.89,3.25H60.84a7.48,7.48,0,0,0,7-4.73L68,62,78.51,32.08l.31-.86Z"></path><path class="cls-1" d="M84.78,34.61h29.07L104,6.87a7.48,7.48,0,0,0-7-4.73H72.5a11.15,11.15,0,0,1,1.87,3.23Z"></path></svg>