<svg xmlns="http://www.w3.org/2000/svg" id="Capa_1" data-name="Capa 1" viewBox="0 0 297.01 69.57"><defs><style>.cls-1{fill:#0078f0;}</style></defs><title>swarm-logo</title><path class="cls-1" d="M248.95,37.71l4.58-12.86L246,3.73H228.51l12.11,34a4.48,4.48,0,0,0,8.33,0Z"></path><path class="cls-1" d="M270.7,4.1a4,4,0,0,0-3.42-2.73,4,4,0,0,0-3.62,2.8l-.14.39-6.3,18-5.71,16a6.75,6.75,0,0,1-1.13,2h14.75a4.5,4.5,0,0,0,4.18-2.85l.15-.4,6.3-18,.18-.52Z"></path><path class="cls-1" d="M279.52,20.82H297l-6-16.69a4.5,4.5,0,0,0-4.18-2.85H272.13a6.71,6.71,0,0,1,1.13,1.94Z"></path><path class="cls-1" d="M17.86,69.57q-7.56,0-12.21-3.43A14.29,14.29,0,0,1,0,56.45l7.12-1.08a4.24,4.24,0,0,1,4.19,2,7,7,0,0,0,1.78,1.9,9,9,0,0,0,5.5,1.59,7.21,7.21,0,0,0,4.22-1.06,3.41,3.41,0,0,0,1.48-2.95A2.92,2.92,0,0,0,23.71,55a6.19,6.19,0,0,0-2.65-1.43q-2.06-.7-6.39-1.85a36.25,36.25,0,0,1-7.82-2.82,10.46,10.46,0,0,1-4.22-3.72,10,10,0,0,1-1.3-5.24,11.45,11.45,0,0,1,2-6.69,12.59,12.59,0,0,1,5.54-4.37,21.23,21.23,0,0,1,8.43-1.54,22.42,22.42,0,0,1,8.34,1.45,14.5,14.5,0,0,1,5.87,4.11,12.29,12.29,0,0,1,2.76,6.3l-7.06,1.27a4.14,4.14,0,0,1-4.11-1.83A5,5,0,0,0,22,37.52,8.27,8.27,0,0,0,17.49,36a8.12,8.12,0,0,0-4.46.74,2.91,2.91,0,0,0-1.69,2.67,2.33,2.33,0,0,0,.72,1.74,8.33,8.33,0,0,0,3,1.45q2.28.74,6.95,1.93a30.49,30.49,0,0,1,7.32,2.76,10.4,10.4,0,0,1,4,3.78,10.56,10.56,0,0,1,1.26,5.32A11.66,11.66,0,0,1,30.16,66Q25.71,69.57,17.86,69.57Z"></path><path class="cls-1" d="M46.83,68.45l-12-39.69,8,0a2.48,2.48,0,0,1,2.35,1.76l6.6,21.8L59.1,28.44h6.55A2.48,2.48,0,0,1,68,30.19L74.84,52.3,82.1,28.44H92L80.27,66.7a2.48,2.48,0,0,1-2.37,1.75H72L63.28,42.37,55.11,66.77a2.48,2.48,0,0,1-2.35,1.69Z"></path><path class="cls-1" d="M132.64,68.45V30.92a2.48,2.48,0,0,1,2.48-2.48h6.42v9.78l-1-1.26a14.75,14.75,0,0,1,2.07-3.78,10.91,10.91,0,0,1,3.19-2.82A12.91,12.91,0,0,1,149,29a16.7,16.7,0,0,1,3.52-.63,18.81,18.81,0,0,1,3.63.09v9.41a10.4,10.4,0,0,0-3.87-.35,11.07,11.07,0,0,0-4,1,8.89,8.89,0,0,0-4.85,5.35,12.66,12.66,0,0,0-.63,4.13V66a2.48,2.48,0,0,1-2.48,2.48Z"></path><path class="cls-1" d="M160.13,68.45v-40h6.42A2.48,2.48,0,0,1,169,30.92V41.7h1.26V66a2.48,2.48,0,0,1-2.48,2.48Zm24.16,0V44.82a9.25,9.25,0,0,0-1.87-6.17,7.07,7.07,0,0,0-10.23,0,8.18,8.18,0,0,0-1.91,5.61l-4.22-3a12.91,12.91,0,0,1,2-7,14.17,14.17,0,0,1,5.28-4.93,15.21,15.21,0,0,1,7.43-1.82,13.73,13.73,0,0,1,7.73,2,12,12,0,0,1,4.46,5.34,18.26,18.26,0,0,1,1.44,7.34V66a2.48,2.48,0,0,1-2.48,2.48Zm24.08,0V44.82a9.25,9.25,0,0,0-1.87-6.17,6.42,6.42,0,0,0-5.17-2.2,6.73,6.73,0,0,0-3.67,1,6.64,6.64,0,0,0-2.43,2.74,9,9,0,0,0-.87,4.06l-4.22-2.82a13.41,13.41,0,0,1,7.17-12.17,15.15,15.15,0,0,1,7.28-1.76q6.85,0,10.36,4.06t3.5,10.61V66A2.48,2.48,0,0,1,216,68.45Z"></path><path class="cls-1" d="M112.28,27.81A20.84,20.84,0,0,0,91.17,48.64c0,12.07,7.06,20.82,18.3,20.82,4.06,0,6.41-1.35,9.23-3.29v2.29h6.83A2.48,2.48,0,0,0,128,66V28.44S116.22,27.81,112.28,27.81Zm6.95,20.84c0,5.85-1.61,11.16-9.06,11.16-8.17,0-10.1-6.46-10.1-11.42,0-5.83,4.73-10.82,12.79-10.56,1.6.05,6.37.41,6.37.41V48.65Z"></path></svg>