<svg xmlns="http://www.w3.org/2000/svg" xmlns:xlink="http://www.w3.org/1999/xlink" id="Capa_1" x="0px" y="0px" viewBox="0 0 297 69.6" style="enable-background:new 0 0 297 69.6;" xml:space="preserve"><style type="text/css">	.st0{fill:#FFFFFF;}</style><path class="st0" d="M248.9,37.7l4.6-12.9L246,3.7h-17.5l12.1,34c0.9,2.3,3.5,3.4,5.8,2.5C247.6,39.8,248.5,38.9,248.9,37.7 L248.9,37.7z"></path><path class="st0" d="M270.7,4.1c-0.5-1.5-1.8-2.6-3.4-2.7c-1.7,0.1-3.1,1.2-3.6,2.8l-0.1,0.4l-6.3,18l-5.7,16 c-0.3,0.7-0.6,1.4-1.1,2h14.8c1.8,0,3.5-1.1,4.2-2.8l0.1-0.4l6.3-18l0.2-0.5L270.7,4.1z"></path><path class="st0" d="M279.5,20.8H297l-6-16.7c-0.7-1.7-2.3-2.8-4.2-2.8h-14.7c0.5,0.6,0.9,1.2,1.1,1.9L279.5,20.8z"></path><path class="st0" d="M17.9,69.6c-5,0-9.1-1.1-12.2-3.4c-3.1-2.3-5.2-5.8-5.7-9.7l7.1-1.1c1.7-0.2,3.3,0.6,4.2,2 c0.5,0.7,1.1,1.4,1.8,1.9c1.6,1.1,3.5,1.7,5.5,1.6c1.5,0.1,3-0.3,4.2-1.1c1-0.7,1.5-1.8,1.5-3c0-0.7-0.2-1.3-0.6-1.8 c-0.8-0.7-1.7-1.2-2.6-1.4c-1.4-0.5-3.5-1.1-6.4-1.8c-2.7-0.6-5.3-1.6-7.8-2.8c-1.7-0.8-3.2-2.1-4.2-3.7c-0.9-1.6-1.4-3.4-1.3-5.2 c0-2.4,0.7-4.7,2-6.7c1.4-2,3.3-3.5,5.5-4.4c2.7-1.1,5.5-1.6,8.4-1.5c2.8-0.1,5.7,0.4,8.3,1.5c2.3,0.9,4.3,2.3,5.9,4.1 c1.5,1.8,2.5,4,2.8,6.3l-7.1,1.3c-1.6,0.3-3.2-0.5-4.1-1.8c-0.3-0.4-0.7-0.8-1.1-1.1c-1.3-0.9-2.9-1.5-4.5-1.5 c-1.5-0.2-3.1,0.1-4.5,0.7c-1,0.5-1.7,1.5-1.7,2.7c0,0.7,0.2,1.3,0.7,1.7c0.9,0.7,1.9,1.2,3,1.5c1.5,0.5,3.8,1.1,6.9,1.9 c2.5,0.6,5,1.5,7.3,2.8c1.6,0.9,3,2.2,4,3.8c0.9,1.6,1.3,3.5,1.3,5.3c0.1,3.7-1.5,7.3-4.4,9.6C27.2,68.4,23.1,69.6,17.9,69.6z"></path><path class="st0" d="M46.8,68.4l-12-39.7h8c1.1,0,2,0.7,2.3,1.8l6.6,21.8l7.3-23.9h6.6c1.1,0,2,0.7,2.3,1.8l6.8,22.1l7.3-23.9H92 L80.3,66.7c-0.3,1-1.3,1.7-2.4,1.8H72l-8.7-26.1l-8.2,24.4c-0.3,1-1.3,1.7-2.3,1.7L46.8,68.4z"></path><path class="st0" d="M132.6,68.4V30.9c0-1.4,1.1-2.5,2.5-2.5h6.4v9.8l-1-1.3c0.5-1.4,1.2-2.6,2.1-3.8c0.9-1.1,2-2.1,3.2-2.8 c1-0.6,2.1-1.1,3.2-1.4c1.1-0.3,2.3-0.5,3.5-0.6c1.2-0.1,2.4-0.1,3.6,0.1v9.4c-1.3-0.4-2.6-0.5-3.9-0.3c-1.4,0.1-2.7,0.4-4,1 c-2.3,1-4.1,3-4.9,5.3c-0.4,1.3-0.7,2.7-0.6,4.1v18c0,1.4-1.1,2.5-2.5,2.5L132.6,68.4z"></path><path class="st0" d="M160.1,68.4v-40h6.4c1.4,0,2.4,1.1,2.4,2.5v10.8h1.3V66c0,1.4-1.1,2.5-2.5,2.5L160.1,68.4z M184.3,68.4V44.8 c0.1-2.2-0.5-4.4-1.9-6.2c-2.7-2.8-7.2-2.9-10-0.2c-0.1,0.1-0.2,0.2-0.2,0.2c-1.3,1.6-2,3.6-1.9,5.6l-4.2-3c0-2.5,0.7-4.9,2-7 c1.3-2.1,3.1-3.8,5.3-4.9c2.3-1.2,4.8-1.9,7.4-1.8c2.7-0.1,5.4,0.6,7.7,2c2,1.3,3.5,3.2,4.5,5.3c1,2.3,1.5,4.8,1.4,7.3V66 c0,1.4-1.1,2.5-2.5,2.5L184.3,68.4z M208.4,68.4V44.8c0.1-2.2-0.5-4.4-1.9-6.2c-1.3-1.5-3.2-2.3-5.2-2.2c-1.3,0-2.6,0.3-3.7,1 c-1.1,0.7-1.9,1.6-2.4,2.7c-0.6,1.3-0.9,2.7-0.9,4.1l-4.2-2.8c-0.1-5.1,2.7-9.8,7.2-12.2c2.2-1.2,4.7-1.8,7.3-1.8 c4.6,0,8,1.4,10.4,4.1s3.5,6.2,3.5,10.6V66c0,1.3-1.1,2.4-2.5,2.4H208.4z"></path><path class="st0" d="M112.3,27.8c-11.5-0.1-21,9.1-21.1,20.6c0,0.1,0,0.2,0,0.3c0,12.1,7.1,20.8,18.3,20.8c4.1,0,6.4-1.3,9.2-3.3 v2.3h6.8c1.4,0,2.5-1.1,2.5-2.5V28.4C128,28.4,116.2,27.8,112.3,27.8z M119.2,48.7c0,5.8-1.6,11.2-9.1,11.2 c-8.2,0-10.1-6.5-10.1-11.4c0-5.8,4.7-10.8,12.8-10.6c1.6,0,6.4,0.4,6.4,0.4S119.2,48.7,119.2,48.7z"></path></svg>